<svg width="36" height="36" viewBox="0 0 36 36" fill="none" xmlns="http://www.w3.org/2000/svg">
<path fill-rule="evenodd" clip-rule="evenodd" d="M18 36C27.9411 36 36 27.9411 36 18C36 8.05887 27.9411 0 18 0C8.05887 0 0 8.05887 0 18C0 27.9411 8.05887 36 18 36Z" fill="#F8F8FA"/>
<g opacity="0.5">
<path d="M16.5424 20.1431L16.268 24.0028C16.6606 24.0028 16.8306 23.8341 17.0345 23.6316L18.8752 21.8725L22.6892 24.6656C23.3887 25.0554 23.8815 24.8502 24.0702 24.0221L26.5737 12.2911L26.5744 12.2904C26.7963 11.2563 26.2005 10.852 25.519 11.1057L10.8033 16.7396C9.79901 17.1295 9.81422 17.6893 10.6326 17.943L14.3948 19.1132L23.1336 13.6451C23.5449 13.3728 23.9188 13.5235 23.6113 13.7958L16.5424 20.1431Z" fill="#3A4357"/>
</g>
</svg>
