<svg width="36" height="36" viewBox="0 0 36 36" fill="none" xmlns="http://www.w3.org/2000/svg">
<path fill-rule="evenodd" clip-rule="evenodd" d="M18 36C27.9411 36 36 27.9411 36 18C36 8.05887 27.9411 0 18 0C8.05887 0 0 8.05887 0 18C0 27.9411 8.05887 36 18 36Z" fill="#F8F8FA"/>
<g opacity="0.5">
<path d="M23.018 8.004L20.525 8C17.7242 8 15.9142 9.857 15.9142 12.7312V14.9126H13.4076C13.191 14.9126 13.0156 15.0882 13.0156 15.3048V18.4654C13.0156 18.682 13.1912 18.8574 13.4076 18.8574H15.9142V26.8326C15.9142 27.0492 16.0896 27.2246 16.3062 27.2246H19.5766C19.7932 27.2246 19.9686 27.049 19.9686 26.8326V18.8574H22.8994C23.116 18.8574 23.2914 18.682 23.2914 18.4654L23.2926 15.3048C23.2926 15.2008 23.2512 15.1012 23.1778 15.0276C23.1044 14.954 23.0044 14.9126 22.9004 14.9126H19.9686V13.0634C19.9686 12.1746 20.1804 11.7234 21.3382 11.7234L23.0176 11.7228C23.234 11.7228 23.4094 11.5472 23.4094 11.3308V8.396C23.4094 8.1798 23.2342 8.0044 23.018 8.004Z" fill="#3A4357"/>
</g>
</svg>
