<svg width="36" height="36" viewBox="0 0 36 36" fill="none" xmlns="http://www.w3.org/2000/svg">
<path fill-rule="evenodd" clip-rule="evenodd" d="M18 36C27.9411 36 36 27.9411 36 18C36 8.05887 27.9411 0 18 0C8.05887 0 0 8.05887 0 18C0 27.9411 8.05887 36 18 36Z" fill="#F8F8FA"/>
<g opacity="0.5">
<path fill-rule="evenodd" clip-rule="evenodd" d="M21.949 10H14.435C11.9895 10 10 11.9895 10 14.435V21.9491C10 24.3945 11.9895 26.384 14.435 26.384H21.9491C24.3945 26.384 26.384 24.3945 26.384 21.9491V14.435C26.384 11.9895 24.3945 10 21.949 10ZM18.192 22.6719C15.7218 22.6719 13.7121 20.6623 13.7121 18.192C13.7121 15.7218 15.7218 13.7121 18.192 13.7121C20.6623 13.7121 22.6719 15.7218 22.6719 18.192C22.6719 20.6623 20.6623 22.6719 18.192 22.6719ZM21.4552 13.4449C21.4552 14.1749 22.049 14.7686 22.779 14.7686C23.509 14.7686 24.1029 14.1749 24.1029 13.4449C24.1029 12.7149 23.509 12.121 22.779 12.121C22.049 12.121 21.4552 12.7149 21.4552 13.4449Z" fill="#3A4357"/>
<path d="M18.1913 14.6726C16.2508 14.6726 14.6719 16.2514 14.6719 18.192C14.6719 20.1325 16.2508 21.7114 18.1913 21.7114C20.1319 21.7114 21.7106 20.1325 21.7106 18.192C21.7106 16.2514 20.1319 14.6726 18.1913 14.6726Z" fill="#3A4357"/>
<path d="M22.7793 13.0816C22.579 13.0816 22.416 13.2446 22.416 13.4449C22.416 13.6451 22.579 13.8081 22.7793 13.8081C22.9796 13.8081 23.1426 13.6452 23.1426 13.4449C23.1426 13.2445 22.9796 13.0816 22.7793 13.0816Z" fill="#3A4357"/>
</g>
</svg>
